<mxfile host="Electron" modified="2024-06-14T15:50:17.548Z" agent="Mozilla/5.0 (Windows NT 10.0; Win64; x64) AppleWebKit/537.36 (KHTML, like Gecko) draw.io/23.1.5 Chrome/120.0.6099.109 Electron/28.1.0 Safari/537.36" etag="QaVkPA_FQGfJefGFcWPA" version="23.1.5" type="device">
  <diagram name="Page-1" id="LvSKNlYQBY2EjUd46pAL">
    <mxGraphModel dx="246" dy="87" grid="1" gridSize="10" guides="1" tooltips="1" connect="1" arrows="1" fold="1" page="1" pageScale="1" pageWidth="583" pageHeight="413" math="0" shadow="0">
      <root>
        <mxCell id="0" />
        <mxCell id="1" parent="0" />
        <mxCell id="zdV93urxiiseVByXNg-D-42" value="" style="ellipse;whiteSpace=wrap;html=1;fillColor=#000000;strokeColor=none;strokeWidth=6;" vertex="1" parent="1">
          <mxGeometry x="900" y="695" width="160" height="10" as="geometry" />
        </mxCell>
        <mxCell id="zdV93urxiiseVByXNg-D-32" value="" style="ellipse;whiteSpace=wrap;html=1;fillColor=#000000;strokeColor=#FFFFFF;strokeWidth=6;" vertex="1" parent="1">
          <mxGeometry x="920" y="680" width="120" height="40" as="geometry" />
        </mxCell>
        <mxCell id="zdV93urxiiseVByXNg-D-36" value="" style="ellipse;whiteSpace=wrap;html=1;fillColor=#000000;strokeColor=#FFFFFF;strokeWidth=6;" vertex="1" parent="1">
          <mxGeometry x="940" y="670" width="80" height="60" as="geometry" />
        </mxCell>
        <mxCell id="zdV93urxiiseVByXNg-D-37" value="" style="ellipse;whiteSpace=wrap;html=1;fillColor=#000000;strokeColor=#FFFFFF;strokeWidth=6;" vertex="1" parent="1">
          <mxGeometry x="960" y="660" width="40" height="80" as="geometry" />
        </mxCell>
      </root>
    </mxGraphModel>
  </diagram>
</mxfile>
